<?xml version="1.0" encoding="UTF-8" standalone="no"?>
<svg
   xmlns:dc="http://purl.org/dc/elements/1.1/"
   xmlns:cc="http://creativecommons.org/ns#"
   xmlns:rdf="http://www.w3.org/1999/02/22-rdf-syntax-ns#"
   xmlns:svg="http://www.w3.org/2000/svg"
   xmlns="http://www.w3.org/2000/svg"
   xmlns:sodipodi="http://sodipodi.sourceforge.net/DTD/sodipodi-0.dtd"
   xmlns:inkscape="http://www.inkscape.org/namespaces/inkscape"
   sodipodi:docname="waves.svg"
   inkscape:version="1.0 (4035a4fb49, 2020-05-01)"
   id="svg8"
   version="1.1"
   viewBox="0 0 330.21185 74.451447"
   height="74.451447mm"
   width="330.21185mm">
  <defs
     id="defs2" />
  <sodipodi:namedview
     fit-margin-bottom="0"
     fit-margin-right="-20"
     fit-margin-left="-30"
     fit-margin-top="0"
     inkscape:window-maximized="1"
     inkscape:window-y="0"
     inkscape:window-x="0"
     inkscape:window-height="1136"
     inkscape:window-width="1920"
     showgrid="false"
     inkscape:document-rotation="0"
     inkscape:current-layer="layer1"
     inkscape:document-units="mm"
     inkscape:cy="59.386055"
     inkscape:cx="514.57325"
     inkscape:zoom="0.35"
     inkscape:pageshadow="2"
     inkscape:pageopacity="0.0"
     borderopacity="1.0"
     bordercolor="#666666"
     pagecolor="#ffffff"
     id="base" />
  <metadata
     id="metadata5">
    <rdf:RDF>
      <cc:Work
         rdf:about="">
        <dc:format>image/svg+xml</dc:format>
        <dc:type
           rdf:resource="http://purl.org/dc/dcmitype/StillImage" />
        <dc:title></dc:title>
      </cc:Work>
    </rdf:RDF>
  </metadata>
  <g
     transform="translate(30.314172,-132.45412)"
     inkscape:label="Layer 2"
     id="layer2"
     inkscape:groupmode="layer" />
  <g
     transform="translate(30.314172,-132.45412)"
     id="layer1"
     inkscape:groupmode="layer"
     inkscape:label="Layer 1">
    <path
       d="m 318.68247,188.7674 c -4.2422,-2.73735 -8.23137,-5.83461 -12.32339,-8.78597 -4.98716,-3.58671 -9.8684,-7.28864 -15.13615,-10.45919 -4.85331,-2.99907 -9.39308,-4.31187 -14.98402,-5.03404 -6.20236,-0.80289 -11.94206,0.22316 -17.96425,1.6078 -6.59798,1.56814 -13.14962,3.33803 -19.77248,4.79836 -5.69416,1.26682 -11.45466,2.15055 -17.26207,2.67015 -7.80735,0.49345 -15.64146,0.68214 -23.45965,0.40442 -9.15523,-0.67015 -18.08687,-3.01062 -26.96949,-5.21035 -7.40653,-1.82453 -14.85425,-3.79949 -22.48479,-4.44312 -1.44122,-0.12156 -2.89051,-0.11188 -4.33576,-0.16781 -8.27617,-0.0628 -15.89091,3.01731 -23.4216,6.05989 -4.51201,1.74695 -9.09105,3.31784 -13.85547,4.21875 -3.60829,0.6823 -4.94039,0.72965 -8.724877,1.11648 -10.007552,0.93042 -19.932078,-0.55091 -29.787429,-2.11816 -3.491137,-0.55517 -6.976419,-1.14657 -10.464628,-1.71986 -3.567744,-0.56134 -7.135489,-1.12269 -10.703234,-1.68403 -15.157545,-2.45718 -30.376118,-4.53544 -45.6854388,-5.75306 -6.9402561,-0.52718 -13.9012442,-0.58741 -20.8575012,-0.59525 -3.841477,0.077 -7.69593,-0.13391 -11.53001,0.19034 -2.407595,0.20361 -3.15405,0.37537 -5.503889,0.76704 -4.126931,0.69832 -8.145036,1.85107 -12.163681,2.99353 -1.928273,0.58801 -0.985703,0.29912 -2.827814,0.86631 0,0 -8.77902,6.78418 -8.77902,6.78418 v 0 c 1.877012,-0.56692 0.923102,-0.26258 2.860479,-0.91694 4.051704,-1.1588 8.072286,-2.41117 12.22508,-3.17908 2.45649,-0.46975 2.930674,-0.61257 5.453298,-0.87862 3.823708,-0.40327 7.664635,-0.16881 11.500856,-0.25682 7.039901,-0.029 14.083425,-0.0431 21.1166616,0.31688 15.5563742,0.88881 31.0453954,2.63604 46.4303804,5.1156 15.301938,2.44297 5.954678,0.88536 20.968395,3.53773 9.675066,1.70923 19.409055,3.50101 29.286676,2.79402 3.852487,-0.29825 4.992632,-0.29082 8.67047,-0.91675 4.804916,-0.81775 9.423946,-2.31014 13.961526,-4.06292 7.48666,-3.05039 14.99742,-6.35918 23.23892,-6.47298 1.43272,0.0233 2.86861,-0.0281 4.29817,0.0699 7.61881,0.52226 15.0539,2.52964 22.44021,4.31985 8.91538,2.21895 17.87003,4.59155 27.04294,5.42105 7.78242,0.35194 15.5869,0.18954 23.36741,-0.17483 5.84049,-0.43841 11.6301,-1.27041 17.34874,-2.55551 6.65661,-1.44031 13.22722,-3.25458 19.85048,-4.83927 1.79778,-0.4236 4.86305,-1.18369 6.72242,-1.47878 3.58642,-0.56918 7.26515,-0.64205 10.87643,-0.32802 5.29799,0.59067 10.18865,1.77196 14.78425,4.61994 2.02563,1.20089 3.06422,1.77855 5.02264,3.09253 3.44345,2.31035 6.63295,4.97543 10.08597,7.27324 4.06747,2.93471 7.99923,6.04233 12.03595,9.01741 0,0 9.40829,-6.02403 9.40829,-6.02403 z"
       id="path837"
       style="fill:#e3f5f9;fill-opacity:1;stroke:none;stroke-width:1.05833" />
    <path
       d="m 309.81517,156.73372 c -0.45093,0.39899 -0.88247,0.82212 -1.35276,1.19697 -0.62195,0.49576 -1.25884,0.97396 -1.92071,1.41228 -0.72992,0.48338 -2.98772,1.82087 -2.25015,1.34985 2.19545,-1.40202 4.5576,-2.54943 6.62429,-4.1432 0.72361,-0.55802 -1.6779,0.70517 -2.53927,0.99296 -0.89472,0.29894 -1.81519,0.51011 -2.72279,0.76517 -3.71398,0.84221 -7.52292,1.33592 -11.31676,0.76059 -2.41389,-0.36606 -3.8846,-0.92745 -6.22523,-1.65889 -4.61064,-1.62513 -8.82135,-4.16207 -13.16216,-6.38588 -3.07864,-1.57718 -3.14898,-1.54414 -6.32131,-2.90847 -6.08813,-2.69706 -12.44955,-4.55711 -18.97042,-5.73598 -4.53747,-0.6933 -9.15996,-0.87971 -13.70162,-0.10056 -2.92457,0.50174 -4.21478,0.99542 -7.04882,1.8631 -4.07265,1.27755 -7.82618,3.34353 -11.72011,5.05962 -0.72119,0.31784 -4.03434,1.63601 -4.81503,1.94827 -4.32742,1.63595 -8.89534,2.63507 -13.52667,2.13782 -1.10527,-0.11866 -2.1929,-0.37098 -3.28934,-0.55648 -9.33433,-2.46265 -18.22325,-6.40819 -27.18236,-9.99549 -8.55464,-3.37562 -17.08303,-6.86775 -25.93038,-9.36739 -1.73383,-0.33895 -3.4889,-1.1047 -5.29512,-0.86992 -0.54813,0.0713 -1.11638,0.16347 -1.60321,0.43081 -10.59166,5.81627 -8.13861,3.68795 -12.78927,8.27837 -3.0005,3.19532 -5.82736,6.55285 -9.24005,9.30832 -2.19149,1.76947 -2.86028,2.12569 -5.18678,3.64829 2.13211,-1.28867 4.33897,-2.45588 6.39633,-3.866 0.82031,-0.56225 -1.76298,0.91316 -2.67012,1.31205 -0.89383,0.39303 -1.80578,0.74449 -2.72796,1.06161 -2.79996,0.96288 -5.60898,1.41807 -8.52443,1.82247 -8.309285,0.93807 -16.592117,-0.99994 -24.644747,-2.90657 -6.110614,-1.5164 -12.156129,-3.29754 -18.314418,-4.60671 -2.502063,-0.38333 -4.831154,0.1423 -7.006727,1.44047 -10.605384,6.32823 -7.613828,3.96729 -12.185917,7.74875 -0.454288,0.37388 -0.911284,0.74434 -1.362865,1.12163 -1.041805,0.87044 -1.443631,1.29306 -2.581571,2.03296 -0.446381,0.29023 -1.83593,1.07509 -1.38328,0.7952 8.107425,-5.01307 10.718441,-5.70448 6.007536,-4.1799 -5.712913,1.26737 -11.573987,0.98568 -17.35454,0.50388 -7.3861,-0.7121 -14.7099002,-1.91513 -22.05569984,-2.9459 -6.01655126,-0.97338 -11.75087216,-0.9313 -17.75078516,0.025 -4.791873,0.95277 -9.525416,2.13624 -14.363609,2.82942 -2.157243,0.24757 -1.121196,0.14257 -3.107503,0.32147 0,0 -8.707704,6.59441 -8.707704,6.59441 v 0 c 2.05507,-0.18917 0.984378,-0.0796 3.211488,-0.33455 4.899888,-0.67849 9.693764,-1.82888 14.519562,-2.91019 5.890671,-1.07369 11.671957,-1.22012 17.6091444,-0.31424 7.3769482,0.94557 14.7234451,2.12818 22.1154706,2.95692 5.772594,0.57454 11.587448,0.93634 17.347052,-0.0239 0.615915,-0.13958 1.284441,-0.12818 1.847745,-0.41874 5.856537,-3.02088 11.155052,-5.85739 16.011608,-10.14696 3.876176,-2.99633 1.354091,-0.94224 -6.186103,3.25655 -0.550166,0.30636 1.042139,-0.71623 1.598235,-1.01117 0.989825,-0.52498 2.100814,-0.90831 3.214206,-1.0298 0.579404,-0.0632 1.165364,-0.006 1.748044,-0.01 6.301408,1.07792 12.472287,2.7661 18.681142,4.28628 4.486917,1.09245 8.961442,2.11682 13.523434,2.83374 2.716881,0.42697 4.986792,0.75462 7.734003,0.7495 1.129004,-0.002 2.253707,-0.14261 3.380562,-0.21391 2.696576,-0.2838 3.309345,-0.26061 5.885397,-0.85499 7.33219,-1.69177 13.5618,-5.83121 19.92837,-9.8463 2.263,-1.55752 2.98161,-1.97088 5.10863,-3.77061 3.37277,-2.85377 6.16707,-6.30143 9.34249,-9.36729 4.02683,-3.3857 3.45942,-2.70331 -5.58809,2.63335 -0.44795,0.26422 0.91155,-0.51631 1.4066,-0.66899 1.76347,-0.54389 3.54284,0.21293 5.27923,0.46388 9.02589,2.14285 17.72981,5.43123 26.33377,8.91769 8.86903,3.72314 17.67552,7.72672 26.90286,10.44534 1.11024,0.22882 2.20945,0.52338 3.33072,0.68646 4.67231,0.67958 9.29933,-0.11645 13.7205,-1.6961 1.62475,-0.66006 3.27978,-1.24226 4.89236,-1.93283 3.94012,-1.68733 7.65092,-3.93067 11.74392,-5.25827 2.67726,-0.87806 4.15503,-1.45475 6.92,-1.9966 4.4533,-0.87272 9.00265,-0.79288 13.47426,-0.12286 6.48558,1.08163 12.82739,2.84299 18.87597,5.50836 3.11177,1.30567 3.25919,1.30508 6.28488,2.82537 4.39863,2.21016 8.64384,4.76035 13.23457,6.55502 2.22767,0.75395 3.99614,1.44297 6.30665,1.87634 3.8454,0.72124 7.70916,0.36389 11.50922,-0.43739 7.40006,-1.78835 8.35023,-3.14918 16.96893,-8.1267 2.06185,-1.19077 3.96095,-2.65963 5.68972,-4.3101 0,0 -10.08251,4.27286 -10.08251,4.27286 z"
       id="path843"
       style="fill:#def2fa;fill-opacity:1;stroke:none;stroke-width:1.0463" />
    <path
       d="m 313.71717,200.63036 c -4.82508,-1.70107 -9.48284,-3.82002 -14.30373,-5.53729 -4.23806,-1.57088 -8.53356,-2.98402 -12.93979,-4.02741 -4.22119,-1.00051 -7.73254,-0.59383 -11.84872,0.5589 -4.3894,1.70442 -8.91604,2.82938 -13.58894,3.42962 -6.67014,0.80097 -13.35738,0.28586 -19.99759,-0.48053 -7.8095,-1.30103 -15.34378,-3.84275 -22.76132,-6.50774 -5.51814,-2.01885 -11.05068,-4.03862 -16.80663,-5.30458 -4.57973,-0.9816 -8.40794,-0.91673 -12.97767,-0.0368 -5.51693,1.44311 -10.4701,4.30831 -15.54281,6.78787 -4.78822,2.3265 -9.66999,4.47137 -14.6259,6.43161 -5.84344,2.20254 -12.0892,2.7559 -18.28245,3.13834 -5.04049,0.33847 -10.0603,0.32101 -15.06761,-0.33221 -5.3191,-1.19137 -10.46861,-3.04819 -15.50172,-5.09232 -4.34092,-1.81928 -8.81524,-3.28159 -13.448923,-4.17051 -4.927779,-1.01814 -9.909595,-1.63332 -14.925402,-2.02018 -4.178724,-0.46743 -8.220007,0.2767 -12.085309,1.79206 -3.685415,1.66228 -7.244049,3.53826 -11.008252,5.03129 -3.662972,1.49122 -7.60719,1.71433 -11.517625,1.89087 -5.741302,0.40247 -11.314528,-1.05317 -16.739723,-2.70878 -5.232021,-1.67394 -10.213969,-3.97593 -15.318977,-5.97393 -4.224121,-1.66818 -8.4453415,-3.32377 -12.8987573,-4.29781 -3.9560701,-0.85053 -7.9113906,-0.0736 -11.8096277,0.66757 -4.230164,0.73244 -8.400515,1.74732 -12.639707,2.42878 -4.477043,0.65594 -8.954792,1.32033 -13.4546,1.81051 0,0 -9.027543,6.57284 -9.027543,6.57284 v 0 c 4.518512,-0.5077 9.01418,-1.17988 13.517351,-1.79976 4.260269,-0.60893 8.421673,-1.65455 12.659393,-2.37991 3.773063,-0.7801 7.639679,-1.65341 11.5019403,-0.99655 4.469753,0.81892 8.71340263,2.35381 12.9023754,4.06843 5.1635153,1.93952 10.1507453,4.3055 15.4074873,6.00444 5.461859,1.70587 11.093577,3.32197 16.888895,3.06312 3.935441,-0.11189 7.925079,-0.15645 11.665328,-1.52071 1.162754,-0.46244 2.344212,-0.88071 3.494868,-1.37127 2.579293,-1.09964 4.956803,-2.5985 7.552222,-3.66613 1.077355,-0.47633 2.468074,-1.13708 3.611445,-1.46079 2.644715,-0.74877 5.474297,-0.98356 8.208124,-0.78516 4.986096,0.3051 9.952515,0.845 14.831373,1.93509 4.616153,0.78078 9.055762,2.17749 13.381824,3.93709 5.10004,2.06375 10.29655,3.92719 15.6281,5.33678 1.95216,0.29828 2.83921,0.47644 4.79832,0.61048 3.49467,0.23909 6.9996,-0.0661 10.49287,-0.15793 6.2105,-0.39179 12.49433,-0.77873 18.41753,-2.81506 5.01394,-1.87191 9.88545,-4.10924 14.72065,-6.38466 5.03577,-2.4333 9.89871,-5.30033 15.2883,-6.94131 1.64021,-0.36846 2.58368,-0.62762 4.25577,-0.81672 2.82952,-0.31999 5.66555,0.0615 8.46399,0.47202 5.80955,1.11352 11.38385,3.05199 16.93969,5.0255 7.47153,2.68996 15.05294,5.24855 22.88479,6.72305 6.6209,0.82871 13.29273,1.45149 19.96692,0.823 4.70513,-0.48374 9.3053,-1.45322 13.68712,-3.25357 3.8718,-1.25275 7.386,-1.8794 11.43807,-0.97541 4.43824,0.91611 8.77222,2.25569 13.01646,3.81679 4.78829,1.63835 9.42141,3.65168 14.02277,5.73418 0,0 9.47535,-6.27518 9.47535,-6.27518 z"
       id="path845"
       style="fill:#eef8fc;fill-opacity:1;stroke:none;stroke-width:1.06975" />
  </g>
</svg>
